<svg width="24" height="24" viewBox="0 0 24 24" fill="none" xmlns="http://www.w3.org/2000/svg">
<path d="M7 4C5.34315 4 4 5.34315 4 7V14C4 14.5523 4.44772 15 5 15C5.55228 15 6 14.5523 6 14V7C6 6.44772 6.44772 6 7 6H14C14.5523 6 15 5.55228 15 5C15 4.44772 14.5523 4 14 4H7Z" fill="#5E5E5E"/>
<path fill-rule="evenodd" clip-rule="evenodd" d="M11 8C9.34315 8 8 9.34315 8 11V17C8 18.6569 9.34315 20 11 20H17C18.6569 20 20 18.6569 20 17V11C20 9.34315 18.6569 8 17 8H11ZM10 11C10 10.4477 10.4477 10 11 10H17C17.5523 10 18 10.4477 18 11V17C18 17.5523 17.5523 18 17 18H11C10.4477 18 10 17.5523 10 17V11Z" fill="#5E5E5E"/>
</svg>
