<svg width="24" height="24" viewBox="0 0 24 24" fill="none" xmlns="http://www.w3.org/2000/svg">
<path d="M10.0756 10.8887C9.47452 10.8887 9 11.3892 9 11.9998C9 12.6104 9.48506 13.1109 10.0756 13.1109C10.6766 13.1109 11.1511 12.6104 11.1511 11.9998C11.1617 11.3892 10.6766 10.8887 10.0756 10.8887ZM13.9244 10.8887C13.3234 10.8887 12.8489 11.3892 12.8489 11.9998C12.8489 12.6104 13.3339 13.1109 13.9244 13.1109C14.5255 13.1109 15 12.6104 15 11.9998C15 11.3892 14.5255 10.8887 13.9244 10.8887Z" fill="currentColor"/>
<path d="M18.8914 2H5.10857C3.94629 2 3 2.92 3 4.06V17.58C3 18.72 3.94629 19.64 5.10857 19.64H16.7726L16.2274 17.79L17.544 18.98L18.7886 20.1L21 22V4.06C21 2.92 20.0537 2 18.8914 2ZM14.9211 15.06C14.9211 15.06 14.5509 14.63 14.2423 14.25C15.5897 13.88 16.104 13.06 16.104 13.06C15.6823 13.33 15.2811 13.52 14.9211 13.65C14.4069 13.86 13.9131 14 13.4297 14.08C12.4423 14.26 11.5371 14.21 10.7657 14.07C10.1794 13.96 9.67543 13.8 9.25371 13.64C9.01714 13.55 8.76 13.44 8.50286 13.3C8.472 13.28 8.44114 13.27 8.41029 13.25C8.38971 13.24 8.37943 13.23 8.36914 13.22C8.184 13.12 8.08114 13.05 8.08114 13.05C8.08114 13.05 8.57486 13.85 9.88114 14.23C9.57257 14.61 9.192 15.06 9.192 15.06C6.91886 14.99 6.05486 13.54 6.05486 13.54C6.05486 10.32 7.536 7.71 7.536 7.71C9.01714 6.63 10.4263 6.66 10.4263 6.66L10.5291 6.78C8.67771 7.3 7.824 8.09 7.824 8.09C7.824 8.09 8.05029 7.97 8.43086 7.8C9.53143 7.33 10.4057 7.2 10.7657 7.17C10.8274 7.16 10.8789 7.15 10.9406 7.15C11.568 7.07 12.2777 7.05 13.0183 7.13C13.9954 7.24 15.0446 7.52 16.1143 8.09C16.1143 8.09 15.3017 7.34 13.5531 6.82L13.6971 6.66C13.6971 6.66 15.1063 6.63 16.5874 7.71C16.5874 7.71 18.0686 10.32 18.0686 13.54C18.0686 13.54 17.1943 14.99 14.9211 15.06Z" fill="currentColor"/>
</svg>