<svg width="24" height="24" viewBox="0 0 24 24" fill="none" xmlns="http://www.w3.org/2000/svg">
<path d="M13.295 12.4184C13.295 14.728 11.4399 16.6003 9.1515 16.6003C6.86314 16.6003 5.00781 14.728 5.00781 12.4184C5.00781 10.1088 6.863 8.23633 9.1515 8.23633C11.44 8.23633 13.295 10.1088 13.295 12.4184Z" fill="currentColor"/>
<path d="M17.839 12.4185C17.839 14.5925 16.9114 16.3556 15.7672 16.3556C14.6229 16.3556 13.6953 14.5925 13.6953 12.4185C13.6953 10.2445 14.6228 8.48145 15.767 8.48145C16.9113 8.48145 17.8389 10.244 17.8389 12.4185" fill="currentColor"/>
<path d="M19.6994 12.4186C19.6994 14.366 19.3732 15.9456 18.9707 15.9456C18.5682 15.9456 18.2422 14.3664 18.2422 12.4186C18.2422 10.4708 18.5684 8.8916 18.9707 8.8916C19.3731 8.8916 19.6994 10.4707 19.6994 12.4186Z" fill="currentColor"/>
</svg>