<svg width="24" height="24" viewBox="0 0 24 24" fill="none" xmlns="http://www.w3.org/2000/svg">
<path d="M19.4593 4.36328L13.0312 9.0626L14.2252 6.29007L19.4593 4.36328Z" fill="#E2761B" stroke="#E2761B" stroke-linecap="round" stroke-linejoin="round"/>
<path d="M4.63672 4.36328L11.0067 9.10711L9.8708 6.29007L4.63672 4.36328Z" fill="#E4761B" stroke="#E4761B" stroke-linecap="round" stroke-linejoin="round"/>
<path d="M17.1478 15.2559L15.4375 17.8376L19.0968 18.8296L20.1424 15.3131L17.1478 15.2559Z" fill="#E4761B" stroke="#E4761B" stroke-linecap="round" stroke-linejoin="round"/>
<path d="M3.95703 15.3131L4.9961 18.8296L8.65545 17.8376L6.95163 15.2559L3.95703 15.3131Z" fill="#E4761B" stroke="#E4761B" stroke-linecap="round" stroke-linejoin="round"/>
<path d="M8.45721 10.894L7.4375 12.4138L11.0646 12.5728L10.942 8.72559L8.45721 10.894Z" fill="#E4761B" stroke="#E4761B" stroke-linecap="round" stroke-linejoin="round"/>
<path d="M15.6386 10.8936L13.1152 8.68066L13.0312 12.5724L16.6583 12.4134L15.6386 10.8936Z" fill="#E4761B" stroke="#E4761B" stroke-linecap="round" stroke-linejoin="round"/>
<path d="M8.65625 17.838L10.8441 16.7887L8.95958 15.3389L8.65625 17.838Z" fill="#E4761B" stroke="#E4761B" stroke-linecap="round" stroke-linejoin="round"/>
<path d="M13.25 16.7887L15.4379 17.838L15.1345 15.3389L13.25 16.7887Z" fill="#E4761B" stroke="#E4761B" stroke-linecap="round" stroke-linejoin="round"/>
<path d="M15.4379 17.8383L13.25 16.7891L13.4243 18.1944L13.4049 18.7858L15.4379 17.8383Z" fill="#D7C1B3" stroke="#D7C1B3" stroke-linecap="round" stroke-linejoin="round"/>
<path d="M8.65625 17.8383L10.6892 18.7858L10.6763 18.1944L10.8441 16.7891L8.65625 17.8383Z" fill="#D7C1B3" stroke="#D7C1B3" stroke-linecap="round" stroke-linejoin="round"/>
<path d="M10.7262 14.4112L8.90625 13.8834L10.1906 13.3047L10.7262 14.4112Z" fill="#233447" stroke="#233447" stroke-linecap="round" stroke-linejoin="round"/>
<path d="M13.3672 14.4112L13.9029 13.3047L15.1936 13.8834L13.3672 14.4112Z" fill="#233447" stroke="#233447" stroke-linecap="round" stroke-linejoin="round"/>
<path d="M8.65304 17.8376L8.96928 15.2559L6.94922 15.3131L8.65304 17.8376Z" fill="#CD6116" stroke="#CD6116" stroke-linecap="round" stroke-linejoin="round"/>
<path d="M15.1211 15.2559L15.4373 17.8376L17.1476 15.3131L15.1211 15.2559Z" fill="#CD6116" stroke="#CD6116" stroke-linecap="round" stroke-linejoin="round"/>
<path d="M16.6544 12.4141L13.0273 12.573L13.3629 14.4108L13.8986 13.3043L15.1894 13.883L16.6544 12.4141Z" fill="#CD6116" stroke="#CD6116" stroke-linecap="round" stroke-linejoin="round"/>
<path d="M8.90508 13.883L10.1894 13.3043L10.7251 14.4108L11.0607 12.573L7.43359 12.4141L8.90508 13.883Z" fill="#CD6116" stroke="#CD6116" stroke-linecap="round" stroke-linejoin="round"/>
<path d="M7.43359 12.4141L8.95671 15.3392L8.90507 13.883L7.43359 12.4141Z" fill="#E4751F" stroke="#E4751F" stroke-linecap="round" stroke-linejoin="round"/>
<path d="M15.1909 13.883L15.1328 15.3392L16.6559 12.4141L15.1909 13.883Z" fill="#E4751F" stroke="#E4751F" stroke-linecap="round" stroke-linejoin="round"/>
<path d="M11.0622 12.5732L10.7266 14.411L11.1525 16.5794L11.2429 13.7242L11.0622 12.5732Z" fill="#E4751F" stroke="#E4751F" stroke-linecap="round" stroke-linejoin="round"/>
<path d="M13.0297 12.5732L12.8555 13.7179L12.9394 16.5794L13.3653 14.411L13.0297 12.5732Z" fill="#E4751F" stroke="#E4751F" stroke-linecap="round" stroke-linejoin="round"/>
<path d="M13.3635 14.4106L12.9375 16.579L13.2473 16.7889L15.1318 15.339L15.1899 13.8828L13.3635 14.4106Z" fill="#F6851B" stroke="#F6851B" stroke-linecap="round" stroke-linejoin="round"/>
<path d="M8.90625 13.8828L8.95788 15.339L10.8424 16.7889L11.1522 16.579L10.7262 14.4106L8.90625 13.8828Z" fill="#F6851B" stroke="#F6851B" stroke-linecap="round" stroke-linejoin="round"/>
<path d="M13.4063 18.7854L13.4257 18.194L13.2643 18.0541H10.8312L10.6763 18.194L10.6892 18.7854L8.65625 17.8379L9.36618 18.4102L10.8118 19.3958H13.2837L14.7293 18.4102L15.4393 17.8379L13.4063 18.7854Z" fill="#C0AD9E" stroke="#C0AD9E" stroke-linecap="round" stroke-linejoin="round"/>
<path d="M13.2509 16.788L12.9411 16.5781H11.1534L10.8436 16.788L10.6758 18.1933L10.8307 18.0534H13.2638L13.4251 18.1933L13.2509 16.788Z" fill="#161616" stroke="#161616" stroke-linecap="round" stroke-linejoin="round"/>
<path d="M19.7297 9.36783L20.2718 6.77335L19.4586 4.36328L13.25 8.90362L15.6379 10.894L19.0133 11.8669L19.7555 11.0085L19.4328 10.7795L19.9491 10.3153L19.5554 10.0101L20.0717 9.62219L19.7297 9.36783Z" fill="#763D16" stroke="#763D16" stroke-linecap="round" stroke-linejoin="round"/>
<path d="M3.82031 6.77335L4.36889 9.36783L4.02038 9.62219L4.53669 10.0101L4.14301 10.3153L4.65932 10.7795L4.33662 11.0085L5.07882 11.8669L8.45419 10.894L10.8421 8.90362L4.6335 4.36328L3.82031 6.77335Z" fill="#763D16" stroke="#763D16" stroke-linecap="round" stroke-linejoin="round"/>
<path d="M19.0116 11.8675L15.6362 10.8945L16.6559 12.4143L15.1328 15.3395L17.1464 15.3141H20.141L19.0116 11.8675Z" fill="#F6851B" stroke="#F6851B" stroke-linecap="round" stroke-linejoin="round"/>
<path d="M8.45538 10.8936L5.08 11.8665L3.95703 15.3131H6.95163L8.95878 15.3385L7.43567 12.4134L8.45538 10.8936Z" fill="#F6851B" stroke="#F6851B" stroke-linecap="round" stroke-linejoin="round"/>
<path d="M13.0296 12.5728L13.249 8.9036L14.2235 6.29004H9.86719L10.8417 8.9036L11.0612 12.5728L11.1451 13.7301L11.1515 16.5789H12.9392L12.9457 13.7301L13.0296 12.5728Z" fill="#F6851B" stroke="#F6851B" stroke-linecap="round" stroke-linejoin="round"/>
</svg>
