<svg width="24" height="24" viewBox="0 0 24 24" fill="none" xmlns="http://www.w3.org/2000/svg">
<path fill-rule="evenodd" clip-rule="evenodd" d="M21.1024 6.06939C20.4195 6.37075 19.6868 6.57534 18.9182 6.66658C19.7034 6.19657 20.3061 5.45009 20.5881 4.56261C19.8527 4.99944 19.0399 5.31462 18.1745 5.48603C17.4806 4.74784 16.4936 4.28613 15.3987 4.28613C13.3003 4.28613 11.5972 5.98921 11.5972 8.08765C11.5972 8.38625 11.6304 8.67655 11.6967 8.95302C8.53663 8.79543 5.73594 7.28035 3.86145 4.98008C3.53521 5.54133 3.34721 6.19381 3.34721 6.89052C3.34721 8.2093 4.01904 9.37326 5.03923 10.0534C4.41716 10.034 3.83104 9.86262 3.31679 9.57785C3.31679 9.59444 3.31679 9.60826 3.31679 9.62485C3.31679 11.4662 4.62728 13.0034 6.36631 13.3517C6.04836 13.4374 5.71106 13.4844 5.36547 13.4844C5.11941 13.4844 4.88164 13.4596 4.6494 13.4153C5.13323 14.9249 6.53772 16.0252 8.19933 16.0556C6.89714 17.0758 5.26041 17.6841 3.47715 17.6841C3.17026 17.6841 2.8689 17.6647 2.57031 17.6315C4.25128 18.7098 6.25019 19.3402 8.39839 19.3402C15.3904 19.3402 19.2141 13.548 19.2141 8.52448C19.2141 8.3586 19.2113 8.19548 19.203 8.03236C19.9467 7.496 20.5909 6.82693 21.0996 6.06386L21.1024 6.06939Z" fill="currentColor"/>
</svg>