<svg width="48" height="48" viewBox="0 0 48 48" fill="none" xmlns="http://www.w3.org/2000/svg">
<path d="M20.8246 0.836188C22.7895 -0.278729 25.2105 -0.278729 27.1754 0.836187L42.8246 9.71549C44.7895 10.8304 46 12.8909 46 15.1207V32.8793C46 35.1091 44.7895 37.1696 42.8246 38.2845L27.1754 47.1638C25.2105 48.2787 22.7895 48.2787 20.8246 47.1638L5.17543 38.2845C3.21047 37.1696 2 35.1091 2 32.8793V15.1207C2 12.8909 3.21047 10.8304 5.17543 9.71549L20.8246 0.836188Z" fill="#141318"/>
<path d="M18.063 21.5563L23.9925 15.6268L29.9248 21.5589L33.3749 18.1088L23.9925 8.72656L14.6131 18.106L18.0631 21.5561L18.063 21.5563ZM8.72656 23.9926L12.1768 20.5418L15.6268 23.9918L12.1765 27.4421L8.72656 23.9926ZM18.063 26.4291L23.9925 32.3583L29.9247 26.4263L33.3766 29.8746L33.3749 29.8764L23.9925 39.2585L14.6131 29.8791L14.6082 29.8742L18.0633 26.4288L18.063 26.4291ZM32.3582 23.994L35.8084 20.5438L39.2584 23.9938L35.8083 27.444L32.3582 23.994Z" fill="#EFEA72"/>
<path d="M27.4902 23.9911H27.4917L23.991 20.4902L21.4035 23.077L21.1062 23.3744L20.4932 23.9876L20.4883 23.9924L20.4932 23.9974L23.991 27.4957L27.4919 23.9948L27.4936 23.9929L27.4905 23.9911" fill="#EFEA72"/>
</svg>
