<svg width="48" height="48" viewBox="0 0 48 48" fill="none" xmlns="http://www.w3.org/2000/svg">
<rect width="48" height="48" rx="24" fill="black"/>
<path fill-rule="evenodd" clip-rule="evenodd" d="M32.0448 13.5795V28.6123C32.0448 29.9071 30.7982 30.8261 29.5808 30.4288L28.674 33.2759C31.7995 34.296 35 31.9365 35 28.6123V12.1636C35 10.5142 33.2477 9.47309 31.825 10.2773L26.6925 13.1788C26.0173 13.5605 25.5989 14.2822 25.5989 15.0651V29.542C25.5989 32.5468 22.7239 34.6924 19.8883 33.8039C17.5497 33.0711 15.9552 30.8819 15.9552 28.4038V21.7783L19.1529 19.8846V25.9323C19.1529 28.5257 20.7609 30.8401 23.172 31.7171L24.1713 28.9018C22.9336 28.4516 22.1082 27.2636 22.1082 25.9323V18.4357C22.1082 16.767 20.3189 15.7282 18.896 16.5709L14.0565 19.437C13.4022 19.8245 13 20.5343 13 21.3018V28.4038C13 32.1934 15.4383 35.5411 19.0145 36.6616C23.7515 38.1459 28.5541 34.5616 28.5541 29.542V15.5528L32.0448 13.5795Z" fill="#EFEA72"/>
</svg>
