<svg width="64" height="32" viewBox="0 0 64 32" fill="none" xmlns="http://www.w3.org/2000/svg">
<path d="M13.8827 0.557458C15.1927 -0.185819 16.8067 -0.185819 18.1166 0.557458L28.5494 6.477C29.8594 7.22027 30.6663 8.59391 30.6663 10.0805V21.9195C30.6663 23.4061 29.8594 24.7797 28.5494 25.523L18.1166 31.4425C16.8067 32.1858 15.1927 32.1858 13.8827 31.4425L3.44996 25.523C2.13999 24.7797 1.33301 23.4061 1.33301 21.9195V10.0805C1.33301 8.59391 2.13999 7.22027 3.44996 6.477L13.8827 0.557458Z" fill="#EFEA72"/>
<path d="M7 11.3361C7.01723 11.267 7.02267 11.1952 7.04352 11.127C7.12605 10.8534 7.292 10.6498 7.54501 10.508C7.92133 10.2963 8.29314 10.0765 8.66674 9.86026C9.58263 9.33005 10.4976 8.79893 11.4135 8.2705C11.5368 8.19962 11.6422 8.16018 11.8171 8.16016C11.8865 8.16016 12.1308 8.16106 12.2523 8.16106C12.3367 8.15837 12.4128 8.1781 12.4872 8.214C12.6441 8.29114 12.7919 8.38445 12.9424 8.47237C13.9871 9.07885 15.0317 9.68623 16.0764 10.2945C16.208 10.3707 16.3448 10.4389 16.4637 10.534C16.7465 10.7592 16.9062 11.0508 16.9117 11.4114C16.9189 11.9372 16.9134 12.4629 16.9144 12.9895C16.9144 13.0146 16.9043 13.0263 16.8845 13.038C16.3113 13.3654 15.7382 13.6947 15.1641 14.0221C15.1515 14.0293 15.1378 14.0356 15.1197 14.0446C15.1197 14.023 15.1197 14.0069 15.1197 13.9916C15.1197 13.509 15.1215 13.0263 15.1197 12.5436C15.1179 12.0977 14.9302 11.7523 14.5421 11.52C13.8747 11.1199 13.2081 10.7197 12.5389 10.3223C12.4074 10.2442 12.2587 10.2039 12.1072 10.1832C11.8787 10.1527 11.6575 10.1787 11.4507 10.2819C11.3192 10.3474 11.1932 10.4255 11.0653 10.499C10.5058 10.8211 9.94357 11.1387 9.38768 11.4662C9.00498 11.6913 8.79824 12.0278 8.79642 12.4736C8.7937 13.2416 8.7928 14.0096 8.79642 14.7775C8.79824 15.2171 8.9932 15.5545 9.37407 15.7832C10.037 16.1806 10.6999 16.5808 11.3655 16.9728C11.5858 17.1029 11.8316 17.1469 12.0891 17.1235C12.2714 17.1075 12.4364 17.0429 12.5924 16.9496C13.4276 16.4517 14.2619 15.9528 15.1007 15.4621C15.4462 15.2602 15.8007 15.0727 16.1534 14.8843C17.0213 14.4196 17.8638 13.91 18.7153 13.4175C18.9918 13.2578 19.2603 13.0855 19.5432 12.9384C19.9269 12.7392 20.323 12.7186 20.7067 12.9384C21.9182 13.6301 23.126 14.3272 24.3366 15.0206C24.4817 15.1041 24.6278 15.1848 24.7457 15.306C24.9552 15.5222 25.0684 15.7788 25.0785 16.0774C25.0812 16.1565 25.0793 16.2363 25.0793 16.3152C25.0793 17.7184 25.0812 19.1216 25.0785 20.5238C25.0776 20.9275 24.908 21.2531 24.5697 21.4811C24.4092 21.5886 24.2352 21.6784 24.0673 21.7744C23.2848 22.2238 22.5012 22.6734 21.7187 23.1228C21.3849 23.3148 21.0504 23.5059 20.7166 23.6979C20.3997 23.8811 19.8622 23.89 19.5496 23.7086C18.2854 22.9819 17.0195 22.2588 15.7572 21.5286C15.3727 21.3061 15.1705 20.9651 15.1678 20.5201C15.1641 20.0286 15.1678 19.5369 15.166 19.0453C15.166 19.0067 15.1796 18.9878 15.2122 18.9699C15.7101 18.6856 16.208 18.4001 16.7048 18.1149C16.7883 18.0673 16.8717 18.0198 16.9614 17.9686C16.9614 17.992 16.9614 18.0073 16.9614 18.0233C16.9614 18.5061 16.9614 18.9888 16.9614 19.4713C16.9614 19.5225 16.9651 19.5737 16.9733 19.623C17.0349 19.9891 17.2245 20.2699 17.5518 20.4574C18.1395 20.7947 18.7262 21.132 19.3129 21.4702C19.5033 21.5806 19.692 21.6918 19.9141 21.7296C20.1934 21.778 20.4592 21.7457 20.7048 21.6012C21.3533 21.2217 21.9998 20.8405 22.6464 20.4592C22.8187 20.3577 22.9619 20.2241 23.068 20.0545C23.1868 19.8653 23.2403 19.6589 23.2403 19.4373C23.2403 18.6873 23.2403 17.9373 23.2403 17.1873C23.2403 17.1424 23.2395 17.0976 23.2348 17.0526C23.1995 16.6507 23.01 16.343 22.6572 16.1385C22.1049 15.8182 21.5518 15.5006 20.9977 15.1839C20.8481 15.0978 20.7048 14.9982 20.5425 14.9354C20.188 14.7982 19.8361 14.7937 19.5006 14.9857C18.5584 15.524 17.6189 16.0667 16.6785 16.6077C15.3083 17.3953 13.9399 18.1849 12.5679 18.9681C12.2188 19.1673 11.8479 19.1969 11.4724 19.0353C11.3455 18.9806 11.2294 18.9027 11.1097 18.8336C9.94629 18.1661 8.78373 17.4985 7.62117 16.8312C7.3328 16.6661 7.13149 16.4328 7.04171 16.1117C7.02357 16.0478 7.01451 15.9806 7.00181 15.916C7 14.39 7 12.863 7 11.3361Z" fill="#141318"/>
<path d="M29.8827 0.557458C31.1927 -0.185819 32.8067 -0.185819 34.1166 0.557458L44.5494 6.477C45.8594 7.22027 46.6663 8.59391 46.6663 10.0805V21.9195C46.6663 23.4061 45.8594 24.7797 44.5494 25.523L34.1166 31.4425C32.8067 32.1858 31.1927 32.1858 29.8827 31.4425L19.45 25.523C18.14 24.7797 17.333 23.4061 17.333 21.9195V10.0805C17.333 8.59391 18.14 7.22027 19.45 6.477L29.8827 0.557458Z" fill="#006DFF"/>
<path d="M23 11.3361C23.0172 11.267 23.0227 11.1952 23.0435 11.127C23.1261 10.8534 23.292 10.6498 23.545 10.508C23.9213 10.2963 24.2931 10.0765 24.6667 9.86026C25.5826 9.33005 26.4976 8.79893 27.4135 8.2705C27.5368 8.19962 27.6421 8.16018 27.8171 8.16016C27.8865 8.16016 28.1308 8.16106 28.2523 8.16106C28.3367 8.15837 28.4128 8.1781 28.4872 8.214C28.6441 8.29114 28.7919 8.38445 28.9424 8.47237C29.9871 9.07885 31.0317 9.68623 32.0764 10.2945C32.208 10.3707 32.3448 10.4389 32.4637 10.534C32.7465 10.7592 32.9062 11.0508 32.9117 11.4114C32.9189 11.9372 32.9134 12.4629 32.9144 12.9895C32.9144 13.0146 32.9043 13.0263 32.8845 13.038C32.3113 13.3654 31.7382 13.6947 31.1641 14.0221C31.1514 14.0293 31.1378 14.0356 31.1197 14.0446C31.1197 14.023 31.1197 14.0069 31.1197 13.9916C31.1197 13.509 31.1215 13.0263 31.1197 12.5436C31.1179 12.0977 30.9302 11.7523 30.5421 11.52C29.8747 11.1199 29.2081 10.7197 28.5389 10.3223C28.4074 10.2442 28.2587 10.2039 28.1072 10.1832C27.8787 10.1527 27.6575 10.1787 27.4507 10.2819C27.3192 10.3474 27.1932 10.4255 27.0653 10.499C26.5058 10.8211 25.9436 11.1387 25.3877 11.4662C25.005 11.6913 24.7982 12.0278 24.7964 12.4736C24.7937 13.2416 24.7928 14.0096 24.7964 14.7775C24.7982 15.2171 24.9932 15.5545 25.3741 15.7832C26.037 16.1806 26.6999 16.5808 27.3655 16.9728C27.5858 17.1029 27.8316 17.1469 28.0891 17.1235C28.2714 17.1075 28.4364 17.0429 28.5924 16.9496C29.4276 16.4517 30.2619 15.9528 31.1007 15.4621C31.4462 15.2602 31.8007 15.0727 32.1534 14.8843C33.0213 14.4196 33.8638 13.91 34.7153 13.4175C34.9918 13.2578 35.2603 13.0855 35.5432 12.9384C35.9269 12.7392 36.323 12.7186 36.7067 12.9384C37.9182 13.6301 39.126 14.3272 40.3366 15.0206C40.4817 15.1041 40.6278 15.1848 40.7457 15.306C40.9552 15.5222 41.0684 15.7788 41.0785 16.0774C41.0812 16.1565 41.0793 16.2363 41.0793 16.3152C41.0793 17.7184 41.0812 19.1216 41.0785 20.5238C41.0776 20.9275 40.908 21.2531 40.5697 21.4811C40.4092 21.5886 40.2352 21.6784 40.0673 21.7744C39.2848 22.2238 38.5012 22.6734 37.7187 23.1228C37.3849 23.3148 37.0504 23.5059 36.7166 23.6979C36.3997 23.8811 35.8622 23.89 35.5496 23.7086C34.2854 22.9819 33.0195 22.2588 31.7572 21.5286C31.3727 21.306 31.1705 20.9651 31.1678 20.5201C31.1641 20.0286 31.1678 19.5369 31.166 19.0453C31.166 19.0067 31.1796 18.9878 31.2122 18.9699C31.7101 18.6856 32.208 18.4001 32.7048 18.1149C32.7883 18.0673 32.8717 18.0198 32.9614 17.9686C32.9614 17.992 32.9614 18.0073 32.9614 18.0233C32.9614 18.5061 32.9614 18.9888 32.9614 19.4713C32.9614 19.5225 32.9651 19.5737 32.9733 19.623C33.0349 19.9891 33.2245 20.2699 33.5518 20.4574C34.1395 20.7947 34.7262 21.132 35.3129 21.4702C35.5033 21.5806 35.692 21.6918 35.9141 21.7296C36.1934 21.778 36.4592 21.7457 36.7048 21.6012C37.3532 21.2217 37.9998 20.8405 38.6464 20.4592C38.8187 20.3577 38.9619 20.2241 39.068 20.0545C39.1868 19.8653 39.2403 19.6589 39.2403 19.4373C39.2403 18.6873 39.2403 17.9373 39.2403 17.1873C39.2403 17.1424 39.2395 17.0976 39.2348 17.0526C39.1995 16.6507 39.01 16.343 38.6572 16.1385C38.1049 15.8182 37.5518 15.5006 36.9977 15.1839C36.8481 15.0978 36.7048 14.9982 36.5425 14.9354C36.188 14.7982 35.8361 14.7937 35.5006 14.9857C34.5584 15.524 33.6189 16.0667 32.6785 16.6077C31.3083 17.3953 29.9399 18.1849 28.5679 18.9681C28.2188 19.1673 27.8479 19.1969 27.4724 19.0353C27.3455 18.9806 27.2294 18.9027 27.1097 18.8336C25.9463 18.1661 24.7837 17.4985 23.6212 16.8312C23.3328 16.6661 23.1315 16.4328 23.0417 16.1117C23.0236 16.0478 23.0145 15.9806 23.0018 15.916C23 14.39 23 12.863 23 11.3361Z" fill="white"/>
<circle cx="48" cy="16" r="16" fill="#8247E5"/>
<path d="M39 11.3361C39.0172 11.267 39.0227 11.1952 39.0435 11.127C39.1261 10.8534 39.292 10.6498 39.545 10.508C39.9213 10.2963 40.2931 10.0765 40.6667 9.86026C41.5826 9.33005 42.4976 8.79893 43.4135 8.2705C43.5368 8.19962 43.6422 8.16018 43.8171 8.16016C43.8865 8.16016 44.1308 8.16106 44.2523 8.16106C44.3367 8.15837 44.4128 8.1781 44.4872 8.214C44.6441 8.29114 44.7919 8.38445 44.9424 8.47237C45.9871 9.07885 47.0317 9.68623 48.0764 10.2945C48.208 10.3707 48.3448 10.4389 48.4637 10.534C48.7465 10.7592 48.9062 11.0508 48.9117 11.4114C48.9189 11.9372 48.9134 12.4629 48.9144 12.9895C48.9144 13.0146 48.9043 13.0263 48.8845 13.038C48.3113 13.3654 47.7382 13.6947 47.1641 14.0221C47.1515 14.0293 47.1378 14.0356 47.1197 14.0446C47.1197 14.023 47.1197 14.0069 47.1197 13.9916C47.1197 13.509 47.1215 13.0263 47.1197 12.5436C47.1179 12.0977 46.9302 11.7523 46.5421 11.52C45.8747 11.1199 45.2081 10.7197 44.5389 10.3223C44.4074 10.2442 44.2587 10.2039 44.1072 10.1832C43.8787 10.1527 43.6575 10.1787 43.4507 10.2819C43.3192 10.3474 43.1932 10.4255 43.0653 10.499C42.5058 10.8211 41.9436 11.1387 41.3877 11.4662C41.005 11.6913 40.7982 12.0278 40.7964 12.4736C40.7937 13.2416 40.7928 14.0096 40.7964 14.7775C40.7982 15.2171 40.9932 15.5545 41.3741 15.7832C42.037 16.1806 42.6999 16.5808 43.3655 16.9728C43.5858 17.1029 43.8316 17.1469 44.0891 17.1235C44.2714 17.1075 44.4364 17.0429 44.5924 16.9496C45.4276 16.4517 46.2619 15.9528 47.1007 15.4621C47.4462 15.2602 47.8007 15.0727 48.1534 14.8843C49.0213 14.4196 49.8638 13.91 50.7153 13.4175C50.9918 13.2578 51.2603 13.0855 51.5432 12.9384C51.9269 12.7392 52.323 12.7186 52.7067 12.9384C53.9182 13.6301 55.126 14.3272 56.3366 15.0206C56.4817 15.1041 56.6278 15.1848 56.7457 15.306C56.9552 15.5222 57.0684 15.7788 57.0785 16.0774C57.0812 16.1565 57.0793 16.2363 57.0793 16.3152C57.0793 17.7184 57.0812 19.1216 57.0785 20.5238C57.0776 20.9275 56.908 21.2531 56.5697 21.4811C56.4092 21.5886 56.2352 21.6784 56.0673 21.7744C55.2848 22.2238 54.5012 22.6734 53.7187 23.1228C53.3849 23.3148 53.0504 23.5059 52.7166 23.6979C52.3997 23.8811 51.8622 23.89 51.5496 23.7086C50.2854 22.9819 49.0195 22.2588 47.7572 21.5286C47.3727 21.3061 47.1705 20.9651 47.1678 20.5201C47.1641 20.0286 47.1678 19.5369 47.166 19.0453C47.166 19.0067 47.1796 18.9878 47.2122 18.9699C47.7101 18.6856 48.208 18.4001 48.7048 18.1149C48.7883 18.0673 48.8717 18.0198 48.9614 17.9686C48.9614 17.992 48.9614 18.0073 48.9614 18.0233C48.9614 18.5061 48.9614 18.9888 48.9614 19.4713C48.9614 19.5225 48.9651 19.5737 48.9733 19.623C49.0349 19.9891 49.2245 20.2699 49.5518 20.4574C50.1395 20.7947 50.7262 21.132 51.3129 21.4702C51.5033 21.5806 51.692 21.6918 51.9141 21.7296C52.1934 21.778 52.4592 21.7457 52.7048 21.6012C53.3533 21.2217 53.9998 20.8405 54.6464 20.4592C54.8187 20.3577 54.9619 20.2241 55.068 20.0545C55.1868 19.8653 55.2403 19.6589 55.2403 19.4373C55.2403 18.6873 55.2403 17.9373 55.2403 17.1873C55.2403 17.1424 55.2395 17.0976 55.2348 17.0526C55.1995 16.6507 55.01 16.343 54.6572 16.1385C54.1049 15.8182 53.5518 15.5006 52.9977 15.1839C52.8481 15.0978 52.7048 14.9982 52.5425 14.9354C52.188 14.7982 51.8361 14.7937 51.5006 14.9857C50.5584 15.524 49.6189 16.0667 48.6785 16.6077C47.3083 17.3953 45.9399 18.1849 44.5679 18.9681C44.2188 19.1673 43.8479 19.1969 43.4724 19.0353C43.3455 18.9806 43.2294 18.9027 43.1097 18.8336C41.9463 18.1661 40.7837 17.4985 39.6212 16.8312C39.3328 16.6661 39.1315 16.4328 39.0417 16.1117C39.0236 16.0478 39.0145 15.9806 39.0018 15.916C39 14.39 39 12.863 39 11.3361Z" fill="white"/>
</svg>
