<svg width="24" height="24" viewBox="0 0 24 24" fill="none" xmlns="http://www.w3.org/2000/svg">
<path d="M12 4C12.5523 4 13 4.44772 13 5V12.5858L16.2929 9.29289C16.6834 8.90237 17.3166 8.90237 17.7071 9.29289C18.0976 9.68342 18.0976 10.3166 17.7071 10.7071L12 16.4142L6.29289 10.7071C5.90237 10.3166 5.90237 9.68342 6.29289 9.29289C6.68342 8.90237 7.31658 8.90237 7.70711 9.29289L11 12.5858V5C11 4.44772 11.4477 4 12 4Z" fill="currentColor"/>
<path d="M6 18C5.44772 18 5 18.4477 5 19C5 19.5523 5.44772 20 6 20H18C18.5523 20 19 19.5523 19 19C19 18.4477 18.5523 18 18 18H6Z" fill="currentColor"/>
</svg>
