<svg width="12" height="12" viewBox="0 0 12 12" fill="none" xmlns="http://www.w3.org/2000/svg">
<path d="M6.53376 8.19267H5.42053V9.23113H6.53376V8.19267Z" fill="#EFEA72"/>
<path fill-rule="evenodd" clip-rule="evenodd" d="M12 6C12 9.31371 9.31371 12 6 12C2.68629 12 0 9.31371 0 6C0 2.68629 2.68629 0 6 0C9.31371 0 12 2.68629 12 6ZM11.0769 6C11.0769 8.80391 8.80391 11.0769 6 11.0769C3.19609 11.0769 0.923077 8.80391 0.923077 6C0.923077 3.19609 3.19609 0.923077 6 0.923077C8.80391 0.923077 11.0769 3.19609 11.0769 6Z" fill="#EFEA72"/>
<path d="M6.53315 3H5.41992V7.5H6.53315V3Z" fill="#EFEA72"/>
</svg>
