<svg width="12" height="13" viewBox="0 0 12 13" fill="currentColor" xmlns="http://www.w3.org/2000/svg">
<path fill-rule="evenodd" clip-rule="evenodd" d="M11.0769 6.5C11.0769 9.30391 8.80391 11.5769 6 11.5769C3.19609 11.5769 0.923077 9.30391 0.923077 6.5C0.923077 3.69609 3.19609 1.42308 6 1.42308C8.80391 1.42308 11.0769 3.69609 11.0769 6.5ZM12 6.5C12 9.81371 9.31371 12.5 6 12.5C2.68629 12.5 0 9.81371 0 6.5C0 3.18629 2.68629 0.5 6 0.5C9.31371 0.5 12 3.18629 12 6.5ZM6.53181 8.69267H5.41858V9.73113H6.53181V8.69267ZM4.23058 4.85451C4.14196 5.10374 4.09766 5.38066 4.09766 5.68528H5.04473C5.04473 5.30866 5.12504 5.00959 5.28566 4.78805C5.45181 4.56097 5.70658 4.44743 6.04996 4.44743C6.12196 4.44743 6.20504 4.46405 6.2992 4.49728C6.39335 4.53051 6.48196 4.58313 6.56504 4.65513C6.64812 4.72713 6.71735 4.82405 6.77273 4.9459C6.83366 5.0622 6.86412 5.20343 6.86412 5.36959C6.86412 5.50805 6.84473 5.62713 6.80596 5.72682C6.77273 5.82651 6.72289 5.9179 6.65643 6.00097C6.5955 6.07851 6.5235 6.15051 6.44043 6.21697C6.36289 6.28343 6.27981 6.35543 6.1912 6.43297C6.08043 6.52713 5.9835 6.62405 5.90043 6.72374C5.82289 6.81789 5.75643 6.92866 5.70104 7.05605C5.64566 7.18343 5.60412 7.33297 5.57643 7.50466C5.55427 7.67082 5.54319 7.87574 5.54319 8.11943H6.44043C6.44043 7.92005 6.45704 7.75113 6.49027 7.61266C6.52904 7.4742 6.58166 7.35513 6.64812 7.25543C6.71458 7.1502 6.79212 7.05605 6.88073 6.97297C6.96935 6.8899 7.06627 6.80405 7.1715 6.71543L7.43735 6.48282C7.52596 6.39974 7.6035 6.30836 7.66996 6.20866C7.74196 6.10343 7.79735 5.98159 7.83612 5.84313C7.88043 5.69913 7.90258 5.5302 7.90258 5.33636C7.90258 5.07051 7.8555 4.83236 7.76135 4.6219C7.66719 4.41143 7.53704 4.23697 7.37089 4.09851C7.21027 3.95451 7.0192 3.84651 6.79766 3.77451C6.58166 3.69697 6.34627 3.6582 6.0915 3.6582C5.78689 3.6582 5.50996 3.70805 5.26073 3.80774C5.01704 3.9019 4.80658 4.03759 4.62935 4.21482C4.45766 4.39205 4.32473 4.60528 4.23058 4.85451Z" fill="currentColor"/>
</svg>
