<svg width="114" height="30" viewBox="0 0 114 30" fill="none" xmlns="http://www.w3.org/2000/svg">
<path d="M52.0336 17.37C52.1279 17.37 52.1963 17.465 52.1687 17.56C51.0969 21.2674 47.7697 23.97 43.8317 23.97C39.0268 23.97 35.1318 19.9473 35.1318 14.985C35.1318 10.0227 39.0268 6 43.8317 6C47.8504 6 51.2327 8.81426 52.2318 12.6387C52.2562 12.7329 52.1885 12.825 52.0956 12.825H47.7944C47.741 12.825 47.6923 12.7934 47.6668 12.7437C46.9255 11.2906 45.4861 10.305 43.8317 10.305C41.4194 10.305 39.4638 12.4003 39.4638 14.985C39.4638 17.5697 41.4194 19.665 43.8317 19.665C45.4019 19.665 46.7788 18.777 47.5485 17.4441C47.5747 17.3985 47.6216 17.37 47.6722 17.37H52.0336Z" fill="white"/>
<path d="M81.5521 10.0875V6.1575C81.5521 6.07467 81.4879 6.00747 81.4094 6.00784C80.5085 6.0123 79.7836 6.06184 79.0441 6.255C74.3335 7.48508 72.8307 12.0698 72.8307 14.58V23.5725H77.2412V14.7675C77.2412 11.6087 79.9528 10.4492 81.4252 10.2387C81.4972 10.2284 81.5521 10.1643 81.5521 10.0875Z" fill="white"/>
<path fill-rule="evenodd" clip-rule="evenodd" d="M70.555 16.605C70.6235 16.605 70.6826 16.5535 70.6941 16.4822C70.7733 15.9953 70.8145 15.4951 70.8145 14.985C70.8145 10.0227 66.9196 6 62.1147 6C57.3099 6 53.4149 10.0227 53.4149 14.985C53.4149 19.9473 57.3099 23.97 62.1147 23.97C65.8391 23.97 69.0167 21.5529 70.2575 18.1546C70.2929 18.0579 70.2241 17.955 70.1259 17.955H65.7143C65.6713 17.955 65.6304 17.9757 65.6028 18.0108C64.7858 19.0488 63.5522 19.71 62.1717 19.71C60.3115 19.71 58.7176 18.5093 58.0512 16.804C58.0139 16.7079 58.0824 16.605 58.181 16.605H70.555ZM65.9466 13.41C66.1445 13.41 66.2814 13.2024 66.1965 13.0141C65.482 11.4302 63.9484 10.335 62.1717 10.335C60.395 10.335 58.8614 11.4302 58.1466 13.0141C58.0616 13.2024 58.1989 13.41 58.3968 13.41H65.9466Z" fill="white"/>
<path fill-rule="evenodd" clip-rule="evenodd" d="M91.1707 24C95.9598 24 99.8422 19.9705 99.8422 15C99.8422 10.0295 95.9598 6 91.1707 6C86.382 6 82.4995 10.0295 82.4995 15C82.4995 19.9705 86.382 24 91.1707 24ZM91.1639 19.68C93.5877 19.68 95.5529 17.5847 95.5529 15C95.5529 12.4153 93.5877 10.32 91.1639 10.32C88.7398 10.32 86.7746 12.4153 86.7746 15C86.7746 17.5847 88.7398 19.68 91.1639 19.68Z" fill="white"/>
<path d="M105.696 11.3199C105.696 12.0453 106.604 12.8771 108.357 13.275C108.809 13.3778 109.156 13.4538 109.43 13.5141L109.454 13.5194L109.455 13.5195C110.223 13.688 110.419 13.7311 110.836 13.8975C111.404 14.1015 111.714 14.2784 112.282 14.6865C112.872 15.0719 113.259 15.6026 113.586 16.26C113.914 16.9175 114 17.6676 114 18.5291C114 20.2747 113.264 21.6603 111.998 22.6125C110.731 23.542 109.42 23.97 107.563 23.97C104.2 23.97 101.502 22.0875 101.046 18.3H105.578C105.749 19.605 106.383 19.9913 107.563 19.9913C109.071 19.9913 109.653 19.3198 109.653 18.345C109.653 17.6196 108.77 17.1039 106.782 16.5825C106.039 16.3785 105.439 16.1865 104.915 15.9825C104.391 15.7785 103.882 15.48 103.262 14.9925C102.642 14.505 102.101 13.8721 101.773 13.26C101.467 12.6252 101.371 12.2607 101.371 11.4219C101.371 9.7443 102.047 8.46717 103.227 7.515C104.428 6.54019 105.827 6.015 107.596 6.015C108.929 6.015 110.141 6.3324 111.233 6.96717C112.326 7.57928 113.886 9.1425 113.886 11.73H109.596C109.34 10.4625 108.82 9.92565 107.596 9.92565C107.05 9.92565 106.592 10.0617 106.22 10.3337C105.871 10.5831 105.696 10.9118 105.696 11.3199Z" fill="white"/>
<path d="M10.7543 26.2501C12.7342 28.3212 15.9442 28.3212 17.9241 26.2501L25.094 18.75C27.0738 16.679 27.0738 13.3211 25.094 11.25L19.3581 5.25L14.3392 10.5L18.6411 15L9.32031 24.7501L10.7543 26.2501Z" fill="url(#paint0_linear_899_6011)"/>
<path d="M17.9242 3.74959C15.9443 1.67852 12.7343 1.67852 10.7544 3.74959L3.58452 11.2496C1.60464 13.3207 1.60464 16.6786 3.58452 18.7496L9.3204 24.7497L14.3393 19.4996L10.0374 14.9996L19.3582 5.24959L17.9242 3.74959Z" fill="url(#paint1_linear_899_6011)"/>
<defs>
<linearGradient id="paint0_linear_899_6011" x1="21.509" y1="22.5001" x2="6.52418" y2="8.1749" gradientUnits="userSpaceOnUse">
<stop stop-color="#EFEA72"/>
<stop offset="1" stop-color="#EFEA72" stop-opacity="0"/>
</linearGradient>
<linearGradient id="paint1_linear_899_6011" x1="7.16946" y1="7.4996" x2="22.1543" y2="21.8248" gradientUnits="userSpaceOnUse">
<stop stop-color="#EFEA72"/>
<stop offset="1" stop-color="#EFEA72" stop-opacity="0"/>
</linearGradient>
</defs>
</svg>
