<svg width="24" height="24" viewBox="0 0 24 24" fill="none" xmlns="http://www.w3.org/2000/svg">
<path d="M12 24C18.6274 24 24 18.6274 24 12C24 5.37258 18.6274 0 12 0C5.37258 0 0 5.37258 0 12C0 18.6274 5.37258 24 12 24Z" fill="#F3BA2F"/>
<path fill-rule="evenodd" clip-rule="evenodd" d="M8.90153 10.8777L12.0897 7.77042L15.2795 10.8794L17.1345 9.07125L12.0897 4.15393L7.04646 9.06961L8.90153 10.8777ZM7.72101 11.9197L5.93758 10.151L4.15405 11.9198L5.93749 13.6885L7.72101 11.9197ZM12.0906 16.2297L8.90359 13.1223L7.04646 14.9281L7.04906 14.9306L12.0906 19.8463L17.1336 14.929L17.1345 14.928L15.2791 13.1208L12.0906 16.2297ZM18.1533 13.6893L19.9368 11.9205L18.1534 10.1518L16.3698 11.9206L18.1533 13.6893ZM13.7712 11.9999H13.7705L13.772 12.0008L13.7712 12.0017L12.0906 13.6822L10.4116 12.0032L10.4093 12.0008L10.4116 11.9984L10.706 11.7041L10.8486 11.5614H10.8487L12.0906 10.3195L13.7712 11.9999Z" fill="white"/>
</svg>
