<svg width="32" height="32" viewBox="0 0 32 32" fill="none" xmlns="http://www.w3.org/2000/svg">
<g clip-path="url(#clip0_279_4616)">
<path d="M13.8993 0.557479C15.1985 -0.185826 16.7991 -0.185827 18.0983 0.557479L28.445 6.47724C29.7441 7.22055 30.5445 8.59423 30.5445 10.0808V21.9204C30.5445 23.407 29.7441 24.7807 28.445 25.524L18.0983 31.4437C16.7991 32.187 15.1985 32.187 13.8993 31.4437L3.55261 25.524C2.25345 24.7807 1.45312 23.407 1.45312 21.9204V10.0808C1.45312 8.59423 2.25344 7.22055 3.55261 6.47724L13.8993 0.557479Z" fill="#FFE81C"/>
<path d="M12.3252 14.4917L15.9975 10.8194L19.6716 14.4932L21.8083 12.3565L15.9975 6.5459L10.1886 12.3548L12.3253 14.4915L12.3252 14.4917ZM6.54297 16.0004L8.67977 13.8633L10.8164 16L8.67962 18.1368L6.54297 16.0004ZM12.3252 17.5095L15.9975 21.1815L19.6715 17.5077L21.8093 19.6433L21.8083 19.6445L15.9975 25.455L10.1886 19.6461L10.1856 19.6431L12.3254 17.5092L12.3252 17.5095ZM21.1786 16.0014L23.3154 13.8645L25.4521 16.0012L23.3153 18.138L21.1786 16.0014Z" fill="black"/>
<path d="M18.1646 15.9992H18.1655L15.9974 13.8311L14.3949 15.4331L14.2108 15.6173L13.8312 15.9971L13.8281 16L13.8312 16.0031L15.9974 18.1697L18.1656 16.0015L18.1667 16.0003L18.1647 15.9992" fill="black"/>
</g>
<defs>
<clipPath id="clip0_279_4616">
<rect width="32" height="32" fill="white"/>
</clipPath>
</defs>
</svg>
