<svg width="24" height="24" viewBox="0 0 24 24" fill="none" xmlns="http://www.w3.org/2000/svg">
<path d="M10.4123 0.418094C11.3948 -0.139364 12.6052 -0.139365 13.5877 0.418094L21.4123 4.85775C22.3948 5.41521 23 6.44543 23 7.56035V16.4397C23 17.5546 22.3948 18.5848 21.4123 19.1423L13.5877 23.5819C12.6052 24.1394 11.3948 24.1394 10.4123 23.5819L2.58771 19.1423C1.60523 18.5848 1 17.5546 1 16.4397V7.56035C1 6.44543 1.60523 5.41521 2.58771 4.85775L10.4123 0.418094Z" fill="#006DFF"/>
<path d="M5.25 8.50205C5.26292 8.45023 5.267 8.39641 5.28264 8.34527C5.34454 8.14005 5.469 7.98731 5.65876 7.88099C5.941 7.72219 6.21986 7.55735 6.50006 7.39519C7.18698 6.99754 7.87321 6.5992 8.56013 6.20288C8.65263 6.14972 8.73161 6.12014 8.86279 6.12012C8.91485 6.12012 9.09811 6.1208 9.18925 6.1208C9.25249 6.11878 9.30963 6.13358 9.36541 6.1605C9.48307 6.21836 9.59391 6.28834 9.70681 6.35428C10.4903 6.80914 11.2738 7.26467 12.0573 7.72085C12.156 7.77805 12.2586 7.82919 12.3477 7.90051C12.5599 8.06941 12.6797 8.28809 12.6837 8.55857C12.6891 8.95287 12.6851 9.34717 12.6858 9.74213C12.6858 9.76097 12.6782 9.76971 12.6633 9.77847C12.2335 10.024 11.8036 10.271 11.3731 10.5166C11.3636 10.522 11.3534 10.5267 11.3398 10.5334C11.3398 10.5173 11.3398 10.5052 11.3398 10.4937C11.3398 10.1317 11.3411 9.76971 11.3398 9.40773C11.3384 9.07331 11.1976 8.81425 10.9065 8.63999C10.406 8.33989 9.90609 8.03979 9.40417 7.74171C9.30555 7.68317 9.19401 7.65289 9.08043 7.63741C8.90905 7.61455 8.74309 7.63405 8.58801 7.71143C8.48941 7.76057 8.39487 7.81909 8.29897 7.87427C7.87933 8.11583 7.45768 8.35401 7.04076 8.59961C6.75374 8.76849 6.59868 9.02083 6.59732 9.35523C6.59528 9.93121 6.5946 10.5072 6.59732 11.0831C6.59868 11.4128 6.7449 11.6658 7.03056 11.8374C7.52771 12.1355 8.02489 12.4356 8.52409 12.7296C8.68935 12.8271 8.87367 12.8601 9.06683 12.8426C9.20353 12.8306 9.32731 12.7821 9.44429 12.7122C10.0707 12.3387 10.6964 11.9646 11.3255 11.5965C11.5846 11.4451 11.8505 11.3045 12.1151 11.1632C12.7659 10.8147 13.3979 10.4325 14.0365 10.0631C14.2439 9.94333 14.4452 9.81413 14.6574 9.70379C14.9451 9.55441 15.2423 9.53893 15.53 9.70379C16.4387 10.2226 17.3445 10.7454 18.2525 11.2655C18.3613 11.3281 18.4709 11.3886 18.5593 11.4795C18.7164 11.6416 18.8013 11.8341 18.8089 12.0581C18.8109 12.1173 18.8095 12.1772 18.8095 12.2364C18.8095 13.2888 18.8109 14.3412 18.8089 15.3929C18.8082 15.6956 18.681 15.9398 18.4273 16.1108C18.3069 16.1915 18.1764 16.2588 18.0505 16.3308C17.4636 16.6679 16.8759 17.0051 16.289 17.3421C16.0387 17.4861 15.7878 17.6294 15.5375 17.7734C15.2997 17.9108 14.8967 17.9175 14.6622 17.7815C13.7141 17.2364 12.7646 16.6941 11.8179 16.1465C11.5295 15.9795 11.3779 15.7238 11.3758 15.3901C11.3731 15.0215 11.3758 14.6527 11.3745 14.2839C11.3745 14.255 11.3847 14.2409 11.4091 14.2274C11.7825 14.0142 12.156 13.8001 12.5286 13.5861C12.5912 13.5505 12.6537 13.5149 12.7211 13.4765C12.7211 13.494 12.7211 13.5055 12.7211 13.5175C12.7211 13.8795 12.7211 14.2416 12.7211 14.6035C12.7211 14.6419 12.7238 14.6803 12.7299 14.7173C12.7761 14.9918 12.9183 15.2024 13.1639 15.3431C13.6046 15.596 14.0447 15.849 14.4847 16.1027C14.6275 16.1855 14.769 16.2689 14.9355 16.2972C15.1451 16.3335 15.3444 16.3093 15.5286 16.2009C16.0149 15.9163 16.4999 15.6303 16.9848 15.3444C17.114 15.2683 17.2214 15.1681 17.301 15.0409C17.3901 14.8989 17.4302 14.7441 17.4302 14.5779C17.4302 14.0155 17.4302 13.4529 17.4302 12.8905C17.4302 12.8568 17.4296 12.8232 17.4261 12.7895C17.3996 12.488 17.2575 12.2573 16.9929 12.1039C16.5787 11.8637 16.1639 11.6255 15.7483 11.3879C15.6361 11.3233 15.5286 11.2487 15.4069 11.2016C15.141 11.0986 14.8771 11.0953 14.6255 11.2392C13.9188 11.643 13.2141 12.05 12.5089 12.4557C11.4812 13.0465 10.4549 13.6387 9.42593 14.2261C9.16407 14.3755 8.88591 14.3977 8.60433 14.2765C8.50913 14.2355 8.42207 14.177 8.33229 14.1252C7.45972 13.6245 6.5878 13.1239 5.71588 12.6234C5.4996 12.4995 5.34862 12.3246 5.28128 12.0837C5.26768 12.0359 5.26088 11.9854 5.25136 11.937C5.25 10.7925 5.25 9.64727 5.25 8.50205Z" fill="white"/>
</svg>
