<svg width="24" height="24" viewBox="0 0 24 24" fill="none" xmlns="http://www.w3.org/2000/svg">
<path fill-rule="evenodd" clip-rule="evenodd" d="M8.9173 2.68339C7.24836 3.60773 5.8917 4.3725 5.9025 4.3829C5.92269 4.40229 7.90561 5.49647 8.05308 5.56962C8.13401 5.60974 8.16067 5.59619 10.0654 4.54688L11.9957 3.48348L13.8763 4.51352C14.9106 5.08006 15.7867 5.55844 15.8231 5.5766C15.8828 5.60644 15.9974 5.55043 17.0005 5.00079C17.6117 4.66593 18.1088 4.38276 18.1051 4.3715C18.0954 4.34157 12.0232 0.996733 11.9845 1C11.9665 1.00151 10.5863 1.75902 8.9173 2.68339ZM3.14041 5.85978L2.02927 6.47138L2.01463 7.73673L2 9.00205L3.08299 9.59849C3.67863 9.92653 4.18245 10.2013 4.20256 10.2092C4.23151 10.2205 4.23915 9.96439 4.23915 8.98347V7.74355L5.3514 7.13264C5.96315 6.79663 6.46366 6.51332 6.46366 6.50304C6.46366 6.48955 4.38477 5.30849 4.26731 5.25527C4.25864 5.25136 3.75154 5.52338 3.14041 5.85978ZM10.8759 5.86713C10.268 6.20752 9.77406 6.49558 9.77824 6.50726C9.78708 6.53215 11.9594 7.73078 11.9957 7.73078C12.032 7.73078 14.2043 6.53213 14.2132 6.50715C14.2193 6.48982 12.0669 5.26996 12.0005 5.25317C11.9898 5.25046 11.4837 5.52673 10.8759 5.86713ZM18.6256 5.85422C18.018 6.18852 17.5223 6.47404 17.5241 6.48871C17.5259 6.50338 18.0214 6.79032 18.6252 7.12635L19.7229 7.73729V8.97738C19.7229 9.65942 19.7319 10.2174 19.7429 10.2174C19.7539 10.2174 20.261 9.94397 20.8698 9.60975L21.9767 9.00205L21.9694 7.74514L21.9621 6.48826L20.923 5.90677C20.3515 5.58694 19.8494 5.30751 19.8072 5.28583C19.7331 5.24775 19.6933 5.26689 18.6256 5.85422ZM7.00515 8.00878L5.8929 8.62109L5.88529 9.87439L5.87768 11.1277L7.80864 12.1883L9.73961 13.2489L9.74807 15.3856L9.75653 17.5224L10.8541 18.1285C11.4578 18.4619 11.9715 18.7347 11.9957 18.7347C12.0198 18.7347 12.5335 18.4619 13.1372 18.1285L14.2348 17.5224L14.2432 15.3856L14.2517 13.2489L16.1964 12.1872L18.1412 11.1255L18.1417 9.87973L18.1424 8.63394L17.0139 8.01401C16.3932 7.67303 15.8762 7.39885 15.865 7.40472C15.8538 7.41059 14.9786 7.88945 13.9201 8.46884L11.9955 9.52232L10.065 8.4589C9.00323 7.87403 8.13064 7.39572 8.12596 7.396C8.12124 7.39625 7.61689 7.67202 7.00515 8.00878ZM2.02184 14.1621L2.02927 17.5452L5.05871 19.217C6.72489 20.1364 8.098 20.8891 8.11009 20.8896C8.12218 20.8901 8.13205 20.3327 8.13205 19.6509V18.4112L6.20755 17.3487L4.28305 16.2862L4.27556 14.1517L4.26807 12.0173L3.98286 11.861C3.826 11.775 3.31893 11.4964 2.85603 11.2418L2.0144 10.779L2.02184 14.1621ZM20.8427 11.398L19.7233 12.0185L19.7158 14.1517L19.7083 16.285L17.7911 17.3411L15.8739 18.3972L15.8663 19.6439C15.8621 20.3295 15.8642 20.8905 15.871 20.8905C15.8777 20.8905 17.2576 20.1325 18.9373 19.206L21.9913 17.5215L21.9988 14.1489C22.0029 12.2939 21.9963 10.7765 21.9841 10.7769C21.972 10.7772 21.4583 11.0567 20.8427 11.398ZM16.9716 13.5127L15.8739 14.12L15.8663 15.3825L15.8587 16.6451L15.999 16.5675C16.0762 16.5249 16.5834 16.2461 17.1262 15.9481L18.1131 15.4061V14.1529C18.1131 13.4636 18.1032 12.901 18.0911 12.9026C18.079 12.9042 17.5752 13.1787 16.9716 13.5127ZM5.87826 14.1669V15.4061L6.86516 15.9481C7.40794 16.2461 7.91504 16.5248 7.99205 16.5674L8.13205 16.6448L8.13175 15.3939L8.13143 14.143L7.02438 13.5353C6.41548 13.2011 5.90853 12.9276 5.89779 12.9276C5.88704 12.9276 5.87826 13.4853 5.87826 14.1669ZM9.74318 20.5466L9.74444 21.7986L10.8425 22.3993C11.4465 22.7297 11.9654 23 11.9957 23C12.026 23 12.5449 22.7297 13.1488 22.3993L14.2469 21.7986L14.2482 20.5466C14.2489 19.858 14.2396 19.3 14.2275 19.3064C14.2154 19.3129 13.7083 19.5914 13.1006 19.9254L11.9957 20.5325L10.8907 19.9254C10.283 19.5914 9.77593 19.3129 9.76384 19.3064C9.75175 19.3 9.74248 19.858 9.74318 20.5466Z" fill="#EFEA72"/>
</svg>
