<svg width="53" height="24" viewBox="0 0 53 24" fill="none" xmlns="http://www.w3.org/2000/svg">
<path d="M10.9123 0.418094C11.8948 -0.139364 13.1052 -0.139365 14.0877 0.418094L21.9123 4.85775C22.8948 5.41521 23.5 6.44543 23.5 7.56035V16.4397C23.5 17.5546 22.8948 18.5848 21.9123 19.1423L14.0877 23.5819C13.1052 24.1394 11.8948 24.1394 10.9123 23.5819L3.08771 19.1423C2.10523 18.5848 1.5 17.5546 1.5 16.4397V7.56035C1.5 6.44543 2.10523 5.41521 3.08771 4.85775L10.9123 0.418094Z" fill="#EFEA72"/>
<path d="M5.75 8.50205C5.76292 8.45023 5.767 8.39641 5.78264 8.34527C5.84454 8.14005 5.969 7.98731 6.15876 7.88099C6.441 7.72219 6.71986 7.55735 7.00006 7.39519C7.68698 6.99754 8.37321 6.5992 9.06013 6.20288C9.15263 6.14972 9.23161 6.12014 9.36279 6.12012C9.41485 6.12012 9.59811 6.1208 9.68925 6.1208C9.75249 6.11878 9.80963 6.13358 9.86541 6.1605C9.98307 6.21836 10.0939 6.28834 10.2068 6.35428C10.9903 6.80914 11.7738 7.26467 12.5573 7.72085C12.656 7.77805 12.7586 7.82919 12.8477 7.90051C13.0599 8.06941 13.1797 8.28809 13.1837 8.55857C13.1891 8.95287 13.1851 9.34717 13.1858 9.74213C13.1858 9.76097 13.1782 9.76971 13.1633 9.77847C12.7335 10.024 12.3036 10.271 11.8731 10.5166C11.8636 10.522 11.8534 10.5267 11.8398 10.5334C11.8398 10.5173 11.8398 10.5052 11.8398 10.4937C11.8398 10.1317 11.8411 9.76971 11.8398 9.40773C11.8384 9.07331 11.6976 8.81425 11.4065 8.63999C10.906 8.33989 10.4061 8.03979 9.90417 7.74171C9.80555 7.68317 9.69401 7.65289 9.58043 7.63741C9.40905 7.61455 9.24309 7.63405 9.08801 7.71143C8.98941 7.76057 8.89487 7.81909 8.79897 7.87427C8.37933 8.11583 7.95768 8.35401 7.54076 8.59961C7.25374 8.76849 7.09868 9.02083 7.09732 9.35523C7.09528 9.93121 7.0946 10.5072 7.09732 11.0831C7.09868 11.4128 7.2449 11.6658 7.53056 11.8374C8.02771 12.1355 8.52489 12.4356 9.02409 12.7296C9.18935 12.8271 9.37367 12.8601 9.56683 12.8426C9.70353 12.8306 9.82731 12.7821 9.94429 12.7122C10.5707 12.3387 11.1964 11.9646 11.8255 11.5965C12.0846 11.4451 12.3505 11.3045 12.6151 11.1632C13.2659 10.8147 13.8979 10.4325 14.5365 10.0631C14.7439 9.94333 14.9452 9.81413 15.1574 9.70379C15.4451 9.55441 15.7423 9.53893 16.03 9.70379C16.9387 10.2226 17.8445 10.7454 18.7525 11.2655C18.8613 11.3281 18.9709 11.3886 19.0593 11.4795C19.2164 11.6416 19.3013 11.8341 19.3089 12.0581C19.3109 12.1173 19.3095 12.1772 19.3095 12.2364C19.3095 13.2888 19.3109 14.3412 19.3089 15.3929C19.3082 15.6956 19.181 15.9398 18.9273 16.1108C18.8069 16.1915 18.6764 16.2588 18.5505 16.3308C17.9636 16.6679 17.3759 17.0051 16.789 17.3421C16.5387 17.4861 16.2878 17.6294 16.0375 17.7734C15.7997 17.9108 15.3967 17.9175 15.1622 17.7815C14.2141 17.2364 13.2646 16.6941 12.3179 16.1465C12.0295 15.9795 11.8779 15.7238 11.8758 15.3901C11.8731 15.0215 11.8758 14.6527 11.8745 14.2839C11.8745 14.255 11.8847 14.2409 11.9091 14.2274C12.2825 14.0142 12.656 13.8001 13.0286 13.5861C13.0912 13.5505 13.1537 13.5149 13.2211 13.4765C13.2211 13.494 13.2211 13.5055 13.2211 13.5175C13.2211 13.8795 13.2211 14.2416 13.2211 14.6035C13.2211 14.6419 13.2238 14.6803 13.2299 14.7173C13.2761 14.9918 13.4183 15.2024 13.6639 15.3431C14.1046 15.596 14.5447 15.849 14.9847 16.1027C15.1275 16.1855 15.269 16.2689 15.4355 16.2972C15.6451 16.3335 15.8444 16.3093 16.0286 16.2009C16.5149 15.9163 16.9999 15.6303 17.4848 15.3444C17.614 15.2683 17.7214 15.1681 17.801 15.0409C17.8901 14.8989 17.9302 14.7441 17.9302 14.5779C17.9302 14.0155 17.9302 13.4529 17.9302 12.8905C17.9302 12.8568 17.9296 12.8232 17.9261 12.7895C17.8996 12.488 17.7575 12.2573 17.4929 12.1039C17.0787 11.8637 16.6639 11.6255 16.2483 11.3879C16.1361 11.3233 16.0286 11.2487 15.9069 11.2016C15.641 11.0986 15.3771 11.0953 15.1255 11.2392C14.4188 11.643 13.7141 12.05 13.0089 12.4557C11.9812 13.0465 10.9549 13.6387 9.92593 14.2261C9.66407 14.3755 9.38591 14.3977 9.10433 14.2765C9.00913 14.2355 8.92207 14.177 8.83229 14.1252C7.95972 13.6245 7.0878 13.1239 6.21588 12.6234C5.9996 12.4995 5.84862 12.3246 5.78128 12.0837C5.76768 12.0359 5.76088 11.9854 5.75136 11.937C5.75 10.7925 5.75 9.64727 5.75 8.50205Z" fill="#141318"/>
<path d="M24.9123 0.418094C25.8948 -0.139364 27.1052 -0.139365 28.0877 0.418094L35.9123 4.85775C36.8948 5.41521 37.5 6.44543 37.5 7.56035V16.4397C37.5 17.5546 36.8948 18.5848 35.9123 19.1423L28.0877 23.5819C27.1052 24.1394 25.8948 24.1394 24.9123 23.5819L17.0877 19.1423C16.1052 18.5848 15.5 17.5546 15.5 16.4397V7.56035C15.5 6.44543 16.1052 5.41521 17.0877 4.85775L24.9123 0.418094Z" fill="#006DFF"/>
<path d="M19.75 8.50205C19.7629 8.45023 19.767 8.39641 19.7826 8.34527C19.8445 8.14005 19.969 7.98731 20.1588 7.88099C20.441 7.72219 20.7199 7.55735 21.0001 7.39519C21.687 6.99754 22.3732 6.5992 23.0601 6.20288C23.1526 6.14972 23.2316 6.12014 23.3628 6.12012C23.4149 6.12012 23.5981 6.1208 23.6893 6.1208C23.7525 6.11878 23.8096 6.13358 23.8654 6.1605C23.9831 6.21836 24.0939 6.28834 24.2068 6.35428C24.9903 6.80914 25.7738 7.26467 26.5573 7.72085C26.656 7.77805 26.7586 7.82919 26.8477 7.90051C27.0599 8.06941 27.1797 8.28809 27.1837 8.55857C27.1891 8.95287 27.1851 9.34717 27.1858 9.74213C27.1858 9.76097 27.1782 9.76971 27.1633 9.77847C26.7335 10.024 26.3036 10.271 25.8731 10.5166C25.8636 10.522 25.8534 10.5267 25.8398 10.5334C25.8398 10.5173 25.8398 10.5052 25.8398 10.4937C25.8398 10.1317 25.8411 9.76971 25.8398 9.40773C25.8384 9.07331 25.6976 8.81425 25.4065 8.63999C24.906 8.33989 24.4061 8.03979 23.9042 7.74171C23.8056 7.68317 23.694 7.65289 23.5804 7.63741C23.4091 7.61455 23.2431 7.63405 23.088 7.71143C22.9894 7.76057 22.8949 7.81909 22.799 7.87427C22.3793 8.11583 21.9577 8.35401 21.5408 8.59961C21.2537 8.76849 21.0987 9.02083 21.0973 9.35523C21.0953 9.93121 21.0946 10.5072 21.0973 11.0831C21.0987 11.4128 21.2449 11.6658 21.5306 11.8374C22.0277 12.1355 22.5249 12.4356 23.0241 12.7296C23.1894 12.8271 23.3737 12.8601 23.5668 12.8426C23.7035 12.8306 23.8273 12.7821 23.9443 12.7122C24.5707 12.3387 25.1964 11.9646 25.8255 11.5965C26.0846 11.4451 26.3505 11.3045 26.6151 11.1632C27.2659 10.8147 27.8979 10.4325 28.5365 10.0631C28.7439 9.94333 28.9452 9.81413 29.1574 9.70379C29.4451 9.55441 29.7423 9.53893 30.03 9.70379C30.9387 10.2226 31.8445 10.7454 32.7525 11.2655C32.8613 11.3281 32.9709 11.3886 33.0593 11.4795C33.2164 11.6416 33.3013 11.8341 33.3089 12.0581C33.3109 12.1173 33.3095 12.1772 33.3095 12.2364C33.3095 13.2888 33.3109 14.3412 33.3089 15.3929C33.3082 15.6956 33.181 15.9398 32.9273 16.1108C32.8069 16.1915 32.6764 16.2588 32.5505 16.3308C31.9636 16.6679 31.3759 17.0051 30.789 17.3421C30.5387 17.4861 30.2878 17.6294 30.0375 17.7734C29.7997 17.9108 29.3967 17.9175 29.1622 17.7815C28.2141 17.2364 27.2646 16.6941 26.3179 16.1465C26.0295 15.9795 25.8779 15.7238 25.8758 15.3901C25.8731 15.0215 25.8758 14.6527 25.8745 14.2839C25.8745 14.255 25.8847 14.2409 25.9091 14.2274C26.2825 14.0142 26.656 13.8001 27.0286 13.5861C27.0912 13.5505 27.1537 13.5149 27.2211 13.4765C27.2211 13.494 27.2211 13.5055 27.2211 13.5175C27.2211 13.8795 27.2211 14.2416 27.2211 14.6035C27.2211 14.6419 27.2238 14.6803 27.2299 14.7173C27.2761 14.9918 27.4183 15.2024 27.6639 15.3431C28.1046 15.596 28.5447 15.849 28.9847 16.1027C29.1275 16.1855 29.269 16.2689 29.4355 16.2972C29.6451 16.3335 29.8444 16.3093 30.0286 16.2009C30.5149 15.9163 30.9999 15.6303 31.4848 15.3444C31.614 15.2683 31.7214 15.1681 31.801 15.0409C31.8901 14.8989 31.9302 14.7441 31.9302 14.5779C31.9302 14.0155 31.9302 13.4529 31.9302 12.8905C31.9302 12.8568 31.9296 12.8232 31.9261 12.7895C31.8996 12.488 31.7575 12.2573 31.4929 12.1039C31.0787 11.8637 30.6639 11.6255 30.2483 11.3879C30.1361 11.3233 30.0286 11.2487 29.9069 11.2016C29.641 11.0986 29.3771 11.0953 29.1255 11.2392C28.4188 11.643 27.7141 12.05 27.0089 12.4557C25.9812 13.0465 24.9549 13.6387 23.9259 14.2261C23.6641 14.3755 23.3859 14.3977 23.1043 14.2765C23.0091 14.2355 22.9221 14.177 22.8323 14.1252C21.9597 13.6245 21.0878 13.1239 20.2159 12.6234C19.9996 12.4995 19.8486 12.3246 19.7813 12.0837C19.7677 12.0359 19.7609 11.9854 19.7514 11.937C19.75 10.7925 19.75 9.64727 19.75 8.50205Z" fill="white"/>
<circle cx="40.5" cy="12" r="12" fill="#8247E5"/>
<path d="M33.75 8.50205C33.7629 8.45023 33.767 8.39641 33.7826 8.34527C33.8445 8.14005 33.969 7.98731 34.1588 7.88099C34.441 7.72219 34.7199 7.55735 35.0001 7.39519C35.687 6.99754 36.3732 6.5992 37.0601 6.20288C37.1526 6.14972 37.2316 6.12014 37.3628 6.12012C37.4149 6.12012 37.5981 6.1208 37.6893 6.1208C37.7525 6.11878 37.8096 6.13358 37.8654 6.1605C37.9831 6.21836 38.0939 6.28834 38.2068 6.35428C38.9903 6.80914 39.7738 7.26467 40.5573 7.72085C40.656 7.77805 40.7586 7.82919 40.8477 7.90051C41.0599 8.06941 41.1797 8.28809 41.1837 8.55857C41.1891 8.95287 41.1851 9.34717 41.1858 9.74213C41.1858 9.76097 41.1782 9.76971 41.1633 9.77847C40.7335 10.024 40.3036 10.271 39.8731 10.5166C39.8636 10.522 39.8534 10.5267 39.8398 10.5334C39.8398 10.5173 39.8398 10.5052 39.8398 10.4937C39.8398 10.1317 39.8411 9.76971 39.8398 9.40773C39.8384 9.07331 39.6976 8.81425 39.4065 8.63999C38.906 8.33989 38.4061 8.03979 37.9042 7.74171C37.8056 7.68317 37.694 7.65289 37.5804 7.63741C37.4091 7.61455 37.2431 7.63405 37.088 7.71143C36.9894 7.76057 36.8949 7.81909 36.799 7.87427C36.3793 8.11583 35.9577 8.35401 35.5408 8.59961C35.2537 8.76849 35.0987 9.02083 35.0973 9.35523C35.0953 9.93121 35.0946 10.5072 35.0973 11.0831C35.0987 11.4128 35.2449 11.6658 35.5306 11.8374C36.0277 12.1355 36.5249 12.4356 37.0241 12.7296C37.1894 12.8271 37.3737 12.8601 37.5668 12.8426C37.7035 12.8306 37.8273 12.7821 37.9443 12.7122C38.5707 12.3387 39.1964 11.9646 39.8255 11.5965C40.0846 11.4451 40.3505 11.3045 40.6151 11.1632C41.2659 10.8147 41.8979 10.4325 42.5365 10.0631C42.7439 9.94333 42.9452 9.81413 43.1574 9.70379C43.4451 9.55441 43.7423 9.53893 44.03 9.70379C44.9387 10.2226 45.8445 10.7454 46.7525 11.2655C46.8613 11.3281 46.9709 11.3886 47.0593 11.4795C47.2164 11.6416 47.3013 11.8341 47.3089 12.0581C47.3109 12.1173 47.3095 12.1772 47.3095 12.2364C47.3095 13.2888 47.3109 14.3412 47.3089 15.3929C47.3082 15.6956 47.181 15.9398 46.9273 16.1108C46.8069 16.1915 46.6764 16.2588 46.5505 16.3308C45.9636 16.6679 45.3759 17.0051 44.789 17.3421C44.5387 17.4861 44.2878 17.6294 44.0375 17.7734C43.7997 17.9108 43.3967 17.9175 43.1622 17.7815C42.2141 17.2364 41.2646 16.6941 40.3179 16.1465C40.0295 15.9795 39.8779 15.7238 39.8758 15.3901C39.8731 15.0215 39.8758 14.6527 39.8745 14.2839C39.8745 14.255 39.8847 14.2409 39.9091 14.2274C40.2825 14.0142 40.656 13.8001 41.0286 13.5861C41.0912 13.5505 41.1537 13.5149 41.2211 13.4765C41.2211 13.494 41.2211 13.5055 41.2211 13.5175C41.2211 13.8795 41.2211 14.2416 41.2211 14.6035C41.2211 14.6419 41.2238 14.6803 41.2299 14.7173C41.2761 14.9918 41.4183 15.2024 41.6639 15.3431C42.1046 15.596 42.5447 15.849 42.9847 16.1027C43.1275 16.1855 43.269 16.2689 43.4355 16.2972C43.6451 16.3335 43.8444 16.3093 44.0286 16.2009C44.5149 15.9163 44.9999 15.6303 45.4848 15.3444C45.614 15.2683 45.7214 15.1681 45.801 15.0409C45.8901 14.8989 45.9302 14.7441 45.9302 14.5779C45.9302 14.0155 45.9302 13.4529 45.9302 12.8905C45.9302 12.8568 45.9296 12.8232 45.9261 12.7895C45.8996 12.488 45.7575 12.2573 45.4929 12.1039C45.0787 11.8637 44.6639 11.6255 44.2483 11.3879C44.1361 11.3233 44.0286 11.2487 43.9069 11.2016C43.641 11.0986 43.3771 11.0953 43.1255 11.2392C42.4188 11.643 41.7141 12.05 41.0089 12.4557C39.9812 13.0465 38.9549 13.6387 37.9259 14.2261C37.6641 14.3755 37.3859 14.3977 37.1043 14.2765C37.0091 14.2355 36.9221 14.177 36.8323 14.1252C35.9597 13.6245 35.0878 13.1239 34.2159 12.6234C33.9996 12.4995 33.8486 12.3246 33.7813 12.0837C33.7677 12.0359 33.7609 11.9854 33.7514 11.937C33.75 10.7925 33.75 9.64727 33.75 8.50205Z" fill="white"/>
</svg>
